<svg width="1677" height="1128" xmlns="http://www.w3.org/2000/svg" xmlns:xlink="http://www.w3.org/1999/xlink" xml:space="preserve" overflow="hidden"><g transform="translate(-1040 -1608)"><g><path d="M1475.5 1729.84C1475.5 1665.59 1527.59 1613.5 1591.84 1613.5L2595.16 1613.5C2659.41 1613.5 2711.5 1665.59 2711.5 1729.84L2711.5 2195.16C2711.5 2259.41 2659.41 2311.5 2595.16 2311.5L1591.84 2311.5C1527.59 2311.5 1475.5 2259.41 1475.5 2195.16Z" stroke="#000000" stroke-width="6.875" stroke-linecap="butt" stroke-linejoin="miter" stroke-miterlimit="8" stroke-opacity="1" fill="none" fill-rule="evenodd"/><path d="M2097.5 1749.17C2097.5 1699.09 2138.09 1658.5 2188.17 1658.5L2550.83 1658.5C2600.91 1658.5 2641.5 1699.09 2641.5 1749.17L2641.5 2163.83C2641.5 2213.91 2600.91 2254.5 2550.83 2254.5L2188.17 2254.5C2138.09 2254.5 2097.5 2213.91 2097.5 2163.83Z" stroke="#000000" stroke-width="6.875" stroke-linecap="butt" stroke-linejoin="miter" stroke-miterlimit="8" stroke-opacity="1" fill="none" fill-rule="evenodd"/><text fill="#000000" fill-opacity="1" font-family="Aptos,Aptos_MSFontService,sans-serif" font-style="normal" font-variant="normal" font-weight="400" font-stretch="normal" font-size="55" text-anchor="start" direction="ltr" writing-mode="lr-tb" unicode-bidi="normal" text-decoration="none" transform="matrix(1 0 0 1 2225.88 1978)">AI Workload</text><path d="M2017.5 2016.21 2074.1 2016.21 2074.1 2020.79 2017.5 2020.79ZM2069.52 2004.75 2097.02 2018.5 2069.52 2032.25Z" fill="#000000" fill-rule="nonzero" fill-opacity="1"/><path d="M1475.5 2434C1475.5 2403.35 1500.35 2378.5 1531 2378.5L2656 2378.5C2686.65 2378.5 2711.5 2403.35 2711.5 2434L2711.5 2656C2711.5 2686.65 2686.65 2711.5 2656 2711.5L1531 2711.5C1500.35 2711.5 1475.5 2686.65 1475.5 2656Z" stroke="#000000" stroke-width="6.875" stroke-linecap="butt" stroke-linejoin="miter" stroke-miterlimit="8" stroke-dasharray="27.5 20.625" stroke-opacity="1" fill="none" fill-rule="evenodd"/><path d="M1553.5 2444.33C1553.5 2428.96 1565.96 2416.5 1581.33 2416.5L1990.67 2416.5C2006.04 2416.5 2018.5 2428.96 2018.5 2444.33L2018.5 2555.67C2018.5 2571.04 2006.04 2583.5 1990.67 2583.5L1581.33 2583.5C1565.96 2583.5 1553.5 2571.04 1553.5 2555.67Z" stroke="#042433" stroke-width="6.875" stroke-linecap="butt" stroke-linejoin="miter" stroke-miterlimit="8" stroke-opacity="1" fill="none" fill-rule="evenodd"/><text fill="#000000" fill-opacity="1" font-family="Aptos,Aptos_MSFontService,sans-serif" font-style="normal" font-variant="normal" font-weight="400" font-stretch="normal" font-size="55" text-anchor="start" direction="ltr" writing-mode="lr-tb" unicode-bidi="normal" text-decoration="none" transform="matrix(1 0 0 1 1653.98 2521)">RAGEngine</text><path d="M2097.5 2444.33C2097.5 2428.96 2109.96 2416.5 2125.33 2416.5L2613.67 2416.5C2629.04 2416.5 2641.5 2428.96 2641.5 2444.33L2641.5 2555.67C2641.5 2571.04 2629.04 2583.5 2613.67 2583.5L2125.33 2583.5C2109.96 2583.5 2097.5 2571.04 2097.5 2555.67Z" stroke="#042433" stroke-width="6.875" stroke-linecap="butt" stroke-linejoin="miter" stroke-miterlimit="8" stroke-opacity="1" fill="none" fill-rule="evenodd"/><text fill="#000000" fill-opacity="1" font-family="Aptos,Aptos_MSFontService,sans-serif" font-style="normal" font-variant="normal" font-weight="400" font-stretch="normal" font-size="55" text-anchor="start" direction="ltr" writing-mode="lr-tb" unicode-bidi="normal" text-decoration="none" transform="matrix(1 0 0 1 2235.26 2521)">Workspace</text><path d="M2.29167-5.12708e-06 2.29198 138.392-2.29136 138.392-2.29167 5.12708e-06ZM13.7503 133.809 0.000360892 161.309-13.7497 133.809Z" fill="#000000" fill-rule="nonzero" fill-opacity="1" transform="matrix(1 0 0 -1 1800.5 2416.81)"/><path d="M2.29167-5.12708e-06 2.29198 138.392-2.29136 138.392-2.29167 5.12708e-06ZM13.7503 133.809 0.000360892 161.309-13.7497 133.809Z" fill="#000000" fill-rule="nonzero" fill-opacity="1" transform="matrix(1 0 0 -1 2385.5 2416.81)"/><text fill="#000000" fill-opacity="1" font-family="Aptos,Aptos_MSFontService,sans-serif" font-style="normal" font-variant="normal" font-weight="400" font-stretch="normal" font-size="55" text-anchor="start" direction="ltr" writing-mode="lr-tb" unicode-bidi="normal" text-decoration="none" transform="matrix(1 0 0 1 1529.22 2681)">System Node</text><path d="M1047.5 1908.17C1047.5 1888.47 1063.47 1872.5 1083.17 1872.5L1378.83 1872.5C1398.53 1872.5 1414.5 1888.47 1414.5 1908.17L1414.5 2050.83C1414.5 2070.53 1398.53 2086.5 1378.83 2086.5L1083.17 2086.5C1063.47 2086.5 1047.5 2070.53 1047.5 2050.83Z" stroke="#000000" stroke-width="6.875" stroke-linecap="butt" stroke-linejoin="miter" stroke-miterlimit="8" stroke-dasharray="27.5 20.625" stroke-opacity="1" fill="none" fill-rule="evenodd"/><text fill="#000000" fill-opacity="1" font-family="Aptos,Aptos_MSFontService,sans-serif" font-style="normal" font-variant="normal" font-weight="400" font-stretch="normal" font-size="55" text-anchor="start" direction="ltr" writing-mode="lr-tb" unicode-bidi="normal" text-decoration="none" transform="matrix(1 0 0 1 1137.74 1962)">Remote </text><text fill="#000000" fill-opacity="1" font-family="Aptos,Aptos_MSFontService,sans-serif" font-style="normal" font-variant="normal" font-weight="400" font-stretch="normal" font-size="55" text-anchor="start" direction="ltr" writing-mode="lr-tb" unicode-bidi="normal" text-decoration="none" transform="matrix(1 0 0 1 1096.22 2039)">Embedding</text><path d="M1553.5 1735.84C1553.5 1693.12 1588.12 1658.5 1630.84 1658.5L1940.16 1658.5C1982.88 1658.5 2017.5 1693.12 2017.5 1735.84L2017.5 2178.16C2017.5 2220.88 1982.88 2255.5 1940.16 2255.5L1630.84 2255.5C1588.12 2255.5 1553.5 2220.88 1553.5 2178.16Z" stroke="#000000" stroke-width="6.875" stroke-linecap="butt" stroke-linejoin="miter" stroke-miterlimit="8" stroke-opacity="1" fill="none" fill-rule="evenodd"/><path d="M1606.5 2110.33C1606.5 2099.38 1615.38 2090.5 1626.33 2090.5L1953.67 2090.5C1964.62 2090.5 1973.5 2099.38 1973.5 2110.33L1973.5 2189.67C1973.5 2200.62 1964.62 2209.5 1953.67 2209.5L1626.33 2209.5C1615.38 2209.5 1606.5 2200.62 1606.5 2189.67Z" stroke="#000000" stroke-width="6.875" stroke-linecap="butt" stroke-linejoin="miter" stroke-miterlimit="8" stroke-opacity="1" fill="none" fill-rule="evenodd"/><text fill="#000000" fill-opacity="1" font-family="Aptos,Aptos_MSFontService,sans-serif" font-style="normal" font-variant="normal" font-weight="400" font-stretch="normal" font-size="55" text-anchor="start" direction="ltr" writing-mode="lr-tb" unicode-bidi="normal" text-decoration="none" transform="matrix(1 0 0 1 1721.46 2170)">FAISS</text><path d="M1606.5 1889.17C1606.5 1869.47 1622.47 1853.5 1642.17 1853.5L1937.83 1853.5C1957.53 1853.5 1973.5 1869.47 1973.5 1889.17L1973.5 2031.83C1973.5 2051.53 1957.53 2067.5 1937.83 2067.5L1642.17 2067.5C1622.47 2067.5 1606.5 2051.53 1606.5 2031.83Z" stroke="#000000" stroke-width="6.875" stroke-linecap="butt" stroke-linejoin="miter" stroke-miterlimit="8" stroke-dasharray="27.5 20.625" stroke-opacity="1" fill="none" fill-rule="evenodd"/><text fill="#000000" fill-opacity="1" font-family="Aptos,Aptos_MSFontService,sans-serif" font-style="normal" font-variant="normal" font-weight="400" font-stretch="normal" font-size="55" text-anchor="start" direction="ltr" writing-mode="lr-tb" unicode-bidi="normal" text-decoration="none" transform="matrix(1 0 0 1 1724.44 1943)">Local </text><text fill="#000000" fill-opacity="1" font-family="Aptos,Aptos_MSFontService,sans-serif" font-style="normal" font-variant="normal" font-weight="400" font-stretch="normal" font-size="55" text-anchor="start" direction="ltr" writing-mode="lr-tb" unicode-bidi="normal" text-decoration="none" transform="matrix(1 0 0 1 1654.93 2020)">Embedding</text><text fill="#000000" fill-opacity="1" font-family="Aptos,Aptos_MSFontService,sans-serif" font-style="normal" font-variant="normal" font-weight="400" font-stretch="normal" font-size="55" text-anchor="start" direction="ltr" writing-mode="lr-tb" unicode-bidi="normal" text-decoration="none" transform="matrix(1 0 0 1 1637.96 1781)">RAG Service</text><path d="M5.62076e-06-2.29167 124.225-2.29136 124.225 2.29197-5.62076e-06 2.29167ZM119.641-13.7497 147.141 0.000360892 119.641 13.7503Z" fill="#000000" fill-rule="nonzero" fill-opacity="1" transform="matrix(-1 0 0 1 1555.64 1947.5)"/></g></g></svg>